<mxfile host="65bd71144e">
    <diagram id="4IvABGaTJVGKP-pfyGaY" name="trip_Details_screen">
        <mxGraphModel dx="2193" dy="883" grid="1" gridSize="10" guides="1" tooltips="1" connect="1" arrows="1" fold="1" page="1" pageScale="1" pageWidth="850" pageHeight="1100" math="0" shadow="0">
            <root>
                <mxCell id="0"/>
                <mxCell id="1" parent="0"/>
                <mxCell id="2" value="" style="rounded=0;whiteSpace=wrap;html=1;" parent="1" vertex="1">
                    <mxGeometry width="380" height="440" as="geometry"/>
                </mxCell>
                <mxCell id="5" value="Overview" style="rounded=0;whiteSpace=wrap;html=1;" parent="1" vertex="1">
                    <mxGeometry x="185" y="90" width="80" height="30" as="geometry"/>
                </mxCell>
                <mxCell id="7" value="MapView" style="rounded=0;whiteSpace=wrap;html=1;" parent="1" vertex="1">
                    <mxGeometry x="275" y="90" width="80" height="30" as="geometry"/>
                </mxCell>
                <mxCell id="9" value="Content" style="rounded=0;whiteSpace=wrap;html=1;" parent="1" vertex="1">
                    <mxGeometry x="30" y="140" width="320" height="260" as="geometry"/>
                </mxCell>
                <mxCell id="10" value="" style="rounded=0;whiteSpace=wrap;html=1;" parent="1" vertex="1">
                    <mxGeometry x="470" width="380" height="440" as="geometry"/>
                </mxCell>
                <mxCell id="13" value="Overview" style="rounded=0;whiteSpace=wrap;html=1;" parent="1" vertex="1">
                    <mxGeometry x="650" y="90" width="80" height="30" as="geometry"/>
                </mxCell>
                <mxCell id="14" value="MapView" style="rounded=0;whiteSpace=wrap;html=1;fillColor=#d80073;fontColor=#ffffff;strokeColor=#A50040;" parent="1" vertex="1">
                    <mxGeometry x="740" y="90" width="80" height="30" as="geometry"/>
                </mxCell>
                <mxCell id="19" value="Stop" style="rounded=0;whiteSpace=wrap;html=1;" parent="1" vertex="1">
                    <mxGeometry x="480" y="360" width="120" height="60" as="geometry"/>
                </mxCell>
                <mxCell id="21" value="Stop" style="rounded=0;whiteSpace=wrap;html=1;" parent="1" vertex="1">
                    <mxGeometry x="600" y="360" width="120" height="60" as="geometry"/>
                </mxCell>
                <mxCell id="rCZ8Uh6wAshxI6CyTJFV-65" style="edgeStyle=none;html=1;exitX=0.5;exitY=1;exitDx=0;exitDy=0;entryX=0;entryY=0;entryDx=0;entryDy=0;" parent="1" source="22" target="pvaAOozpmYT1dyhe3T81-67" edge="1">
                    <mxGeometry relative="1" as="geometry">
                        <Array as="points">
                            <mxPoint x="780" y="460"/>
                            <mxPoint x="-30" y="460"/>
                            <mxPoint x="-30" y="940"/>
                        </Array>
                    </mxGeometry>
                </mxCell>
                <mxCell id="pwWlHZMNSHFD94gdd8Dv-95" value="on click" style="edgeLabel;html=1;align=center;verticalAlign=middle;resizable=0;points=[];" vertex="1" connectable="0" parent="rCZ8Uh6wAshxI6CyTJFV-65">
                    <mxGeometry x="-0.3716" y="-2" relative="1" as="geometry">
                        <mxPoint x="-1" as="offset"/>
                    </mxGeometry>
                </mxCell>
                <mxCell id="22" value="+" style="rounded=0;whiteSpace=wrap;html=1;" parent="1" vertex="1">
                    <mxGeometry x="720" y="360" width="120" height="60" as="geometry"/>
                </mxCell>
                <mxCell id="23" value="Map" style="rounded=0;whiteSpace=wrap;html=1;" parent="1" vertex="1">
                    <mxGeometry x="490" y="130" width="330" height="210" as="geometry"/>
                </mxCell>
                <mxCell id="24" value="Stop1" style="ellipse;whiteSpace=wrap;html=1;" parent="1" vertex="1">
                    <mxGeometry x="550" y="170" width="30" height="40" as="geometry"/>
                </mxCell>
                <mxCell id="25" value="Stop2" style="ellipse;whiteSpace=wrap;html=1;" parent="1" vertex="1">
                    <mxGeometry x="620" y="250" width="30" height="40" as="geometry"/>
                </mxCell>
                <mxCell id="pwWlHZMNSHFD94gdd8Dv-106" style="edgeStyle=none;html=1;exitX=0.825;exitY=0.825;exitDx=0;exitDy=0;entryX=1;entryY=0;entryDx=0;entryDy=0;exitPerimeter=0;" edge="1" parent="1" source="pwWlHZMNSHFD94gdd8Dv-110" target="pwWlHZMNSHFD94gdd8Dv-85">
                    <mxGeometry relative="1" as="geometry">
                        <Array as="points">
                            <mxPoint x="690" y="320"/>
                            <mxPoint x="960" y="320"/>
                        </Array>
                    </mxGeometry>
                </mxCell>
                <mxCell id="pwWlHZMNSHFD94gdd8Dv-108" value="on click" style="edgeLabel;html=1;align=center;verticalAlign=middle;resizable=0;points=[];" vertex="1" connectable="0" parent="pwWlHZMNSHFD94gdd8Dv-106">
                    <mxGeometry x="-0.4919" y="-1" relative="1" as="geometry">
                        <mxPoint x="-1" as="offset"/>
                    </mxGeometry>
                </mxCell>
                <mxCell id="26" value="Stop3" style="ellipse;whiteSpace=wrap;html=1;" parent="1" vertex="1">
                    <mxGeometry x="740" y="220" width="30" height="40" as="geometry"/>
                </mxCell>
                <mxCell id="28" value="" style="rounded=0;whiteSpace=wrap;html=1;" parent="1" vertex="1">
                    <mxGeometry y="470" width="380" height="440" as="geometry"/>
                </mxCell>
                <mxCell id="31" value="Overview" style="rounded=0;whiteSpace=wrap;html=1;fillColor=#d80073;fontColor=#ffffff;strokeColor=#A50040;" parent="1" vertex="1">
                    <mxGeometry x="180" y="550" width="80" height="30" as="geometry"/>
                </mxCell>
                <mxCell id="32" value="MapView" style="rounded=0;whiteSpace=wrap;html=1;" parent="1" vertex="1">
                    <mxGeometry x="270" y="550" width="80" height="30" as="geometry"/>
                </mxCell>
                <mxCell id="pwWlHZMNSHFD94gdd8Dv-99" style="edgeStyle=none;html=1;exitX=1;exitY=0.5;exitDx=0;exitDy=0;entryX=0;entryY=0.25;entryDx=0;entryDy=0;" edge="1" parent="1" source="34" target="pwWlHZMNSHFD94gdd8Dv-85">
                    <mxGeometry relative="1" as="geometry">
                        <Array as="points">
                            <mxPoint x="430" y="650"/>
                            <mxPoint x="430" y="1150"/>
                        </Array>
                    </mxGeometry>
                </mxCell>
                <mxCell id="pwWlHZMNSHFD94gdd8Dv-100" value="on click" style="edgeLabel;html=1;align=center;verticalAlign=middle;resizable=0;points=[];" vertex="1" connectable="0" parent="pwWlHZMNSHFD94gdd8Dv-99">
                    <mxGeometry x="-0.7846" y="4" relative="1" as="geometry">
                        <mxPoint as="offset"/>
                    </mxGeometry>
                </mxCell>
                <mxCell id="34" value="" style="rounded=0;whiteSpace=wrap;html=1;strokeWidth=4;" parent="1" vertex="1">
                    <mxGeometry x="12.5" y="615" width="337.5" height="70" as="geometry"/>
                </mxCell>
                <mxCell id="35" value="Card" style="text;html=1;strokeColor=none;fillColor=none;align=center;verticalAlign=middle;whiteSpace=wrap;rounded=0;" parent="1" vertex="1">
                    <mxGeometry x="132.5" y="615" width="60" height="30" as="geometry"/>
                </mxCell>
                <mxCell id="36" value="Img" style="rounded=0;whiteSpace=wrap;html=1;" parent="1" vertex="1">
                    <mxGeometry x="12.5" y="645" width="90" height="30" as="geometry"/>
                </mxCell>
                <mxCell id="39" value="Stop" style="text;html=1;strokeColor=none;fillColor=none;align=center;verticalAlign=middle;whiteSpace=wrap;rounded=0;" parent="1" vertex="1">
                    <mxGeometry x="32.5" y="615" width="60" height="30" as="geometry"/>
                </mxCell>
                <mxCell id="40" value="" style="rounded=0;whiteSpace=wrap;html=1;" parent="1" vertex="1">
                    <mxGeometry x="12.5" y="685" width="337.5" height="70" as="geometry"/>
                </mxCell>
                <mxCell id="41" value="Card" style="text;html=1;strokeColor=none;fillColor=none;align=center;verticalAlign=middle;whiteSpace=wrap;rounded=0;" parent="1" vertex="1">
                    <mxGeometry x="132.5" y="685" width="60" height="30" as="geometry"/>
                </mxCell>
                <mxCell id="42" value="Img" style="rounded=0;whiteSpace=wrap;html=1;" parent="1" vertex="1">
                    <mxGeometry x="12.5" y="715" width="90" height="30" as="geometry"/>
                </mxCell>
                <mxCell id="44" value="Stop" style="text;html=1;strokeColor=none;fillColor=none;align=center;verticalAlign=middle;whiteSpace=wrap;rounded=0;" parent="1" vertex="1">
                    <mxGeometry x="32.5" y="685" width="60" height="30" as="geometry"/>
                </mxCell>
                <mxCell id="rCZ8Uh6wAshxI6CyTJFV-66" style="edgeStyle=none;html=1;exitX=0;exitY=0.5;exitDx=0;exitDy=0;" parent="1" source="pvaAOozpmYT1dyhe3T81-65" edge="1">
                    <mxGeometry relative="1" as="geometry">
                        <mxPoint x="-30" y="577.5714285714287" as="targetPoint"/>
                    </mxGeometry>
                </mxCell>
                <mxCell id="pvaAOozpmYT1dyhe3T81-65" value="+ (Place)" style="rounded=0;whiteSpace=wrap;html=1;" parent="1" vertex="1">
                    <mxGeometry x="20" y="560" width="45" height="35" as="geometry"/>
                </mxCell>
                <mxCell id="pvaAOozpmYT1dyhe3T81-67" value="" style="rounded=0;whiteSpace=wrap;html=1;" parent="1" vertex="1">
                    <mxGeometry y="940" width="380" height="440" as="geometry"/>
                </mxCell>
                <mxCell id="pvaAOozpmYT1dyhe3T81-70" value="Overview" style="rounded=0;whiteSpace=wrap;html=1;fillColor=#d80073;fontColor=#ffffff;strokeColor=#A50040;" parent="1" vertex="1">
                    <mxGeometry x="180" y="1030" width="80" height="30" as="geometry"/>
                </mxCell>
                <mxCell id="pvaAOozpmYT1dyhe3T81-71" value="MapView" style="rounded=0;whiteSpace=wrap;html=1;" parent="1" vertex="1">
                    <mxGeometry x="275" y="1030" width="80" height="30" as="geometry"/>
                </mxCell>
                <mxCell id="pvaAOozpmYT1dyhe3T81-72" value="" style="rounded=0;whiteSpace=wrap;html=1;" parent="1" vertex="1">
                    <mxGeometry x="30" y="1080" width="320" height="260" as="geometry"/>
                </mxCell>
                <mxCell id="pvaAOozpmYT1dyhe3T81-73" value="&lt;span style=&quot;color: rgb(240, 240, 240); font-family: Helvetica; font-size: 12px; font-style: normal; font-variant-ligatures: normal; font-variant-caps: normal; font-weight: 400; letter-spacing: normal; orphans: 2; text-align: center; text-indent: 0px; text-transform: none; widows: 2; word-spacing: 0px; -webkit-text-stroke-width: 0px; background-color: rgb(42, 37, 47); text-decoration-thickness: initial; text-decoration-style: initial; text-decoration-color: initial; float: none; display: inline !important;&quot;&gt;What place should you stop next?&lt;/span&gt;" style="text;html=1;strokeColor=none;fillColor=none;align=center;verticalAlign=middle;whiteSpace=wrap;rounded=0;" parent="1" vertex="1">
                    <mxGeometry x="80" y="1100" width="247.5" height="30" as="geometry"/>
                </mxCell>
                <mxCell id="pvaAOozpmYT1dyhe3T81-74" value="Input" style="rounded=0;whiteSpace=wrap;html=1;" parent="1" vertex="1">
                    <mxGeometry x="72.5" y="1150" width="237.5" height="20" as="geometry"/>
                </mxCell>
                <mxCell id="pvaAOozpmYT1dyhe3T81-76" value="" style="edgeStyle=none;html=1;" parent="1" source="pvaAOozpmYT1dyhe3T81-75" target="pvaAOozpmYT1dyhe3T81-74" edge="1">
                    <mxGeometry relative="1" as="geometry"/>
                </mxCell>
                <mxCell id="pvaAOozpmYT1dyhe3T81-77" value="" style="edgeStyle=none;html=1;" parent="1" source="pvaAOozpmYT1dyhe3T81-75" target="pvaAOozpmYT1dyhe3T81-74" edge="1">
                    <mxGeometry relative="1" as="geometry"/>
                </mxCell>
                <mxCell id="pvaAOozpmYT1dyhe3T81-75" value="aut complete" style="rounded=0;whiteSpace=wrap;html=1;" parent="1" vertex="1">
                    <mxGeometry x="90" y="1170" width="200" height="60" as="geometry"/>
                </mxCell>
                <mxCell id="pwWlHZMNSHFD94gdd8Dv-74" value="Trip" style="text;html=1;strokeColor=none;fillColor=none;align=center;verticalAlign=middle;whiteSpace=wrap;rounded=0;" vertex="1" parent="1">
                    <mxGeometry x="160" y="960" width="60" height="30" as="geometry"/>
                </mxCell>
                <mxCell id="pwWlHZMNSHFD94gdd8Dv-75" value="&lt;span style=&quot;color: rgb(240, 240, 240); font-family: Helvetica; font-size: 12px; font-style: normal; font-variant-ligatures: normal; font-variant-caps: normal; font-weight: 400; letter-spacing: normal; orphans: 2; text-align: center; text-indent: 0px; text-transform: none; widows: 2; word-spacing: 0px; -webkit-text-stroke-width: 0px; background-color: rgb(42, 37, 47); text-decoration-thickness: initial; text-decoration-style: initial; text-decoration-color: initial; float: none; display: inline !important;&quot;&gt;Trip (place overview)&lt;/span&gt;" style="text;html=1;strokeColor=none;fillColor=none;align=center;verticalAlign=middle;whiteSpace=wrap;rounded=0;" vertex="1" parent="1">
                    <mxGeometry x="160" y="500" width="60" height="30" as="geometry"/>
                </mxCell>
                <mxCell id="pwWlHZMNSHFD94gdd8Dv-77" value="&lt;span style=&quot;color: rgb(240, 240, 240); font-family: Helvetica; font-size: 12px; font-style: normal; font-variant-ligatures: normal; font-variant-caps: normal; font-weight: 400; letter-spacing: normal; orphans: 2; text-indent: 0px; text-transform: none; widows: 2; word-spacing: 0px; -webkit-text-stroke-width: 0px; background-color: rgb(42, 37, 47); text-decoration-thickness: initial; text-decoration-style: initial; text-decoration-color: initial; float: none; display: inline !important;&quot;&gt;Trip&lt;/span&gt;" style="text;whiteSpace=wrap;html=1;align=center;" vertex="1" parent="1">
                    <mxGeometry x="570" y="25" width="210" height="50" as="geometry"/>
                </mxCell>
                <mxCell id="pwWlHZMNSHFD94gdd8Dv-78" value="&lt;span style=&quot;color: rgb(240, 240, 240); font-family: Helvetica; font-size: 12px; font-style: normal; font-variant-ligatures: normal; font-variant-caps: normal; font-weight: 400; letter-spacing: normal; orphans: 2; text-indent: 0px; text-transform: none; widows: 2; word-spacing: 0px; -webkit-text-stroke-width: 0px; background-color: rgb(42, 37, 47); text-decoration-thickness: initial; text-decoration-style: initial; text-decoration-color: initial; float: none; display: inline !important;&quot;&gt;Trip&lt;/span&gt;" style="text;whiteSpace=wrap;html=1;align=center;" vertex="1" parent="1">
                    <mxGeometry x="92.5" y="20" width="210" height="50" as="geometry"/>
                </mxCell>
                <mxCell id="pwWlHZMNSHFD94gdd8Dv-85" value="" style="rounded=0;whiteSpace=wrap;html=1;" vertex="1" parent="1">
                    <mxGeometry x="480" y="977" width="480" height="690" as="geometry"/>
                </mxCell>
                <mxCell id="pwWlHZMNSHFD94gdd8Dv-86" value="Stop information view" style="text;html=1;strokeColor=none;fillColor=none;align=center;verticalAlign=middle;whiteSpace=wrap;rounded=0;fontSize=20;" vertex="1" parent="1">
                    <mxGeometry x="490" y="990" width="450" height="30" as="geometry"/>
                </mxCell>
                <mxCell id="pwWlHZMNSHFD94gdd8Dv-87" value="$pictureUrl" style="rounded=1;whiteSpace=wrap;html=1;" vertex="1" parent="1">
                    <mxGeometry x="490" y="1020" width="460" height="200" as="geometry"/>
                </mxCell>
                <mxCell id="pwWlHZMNSHFD94gdd8Dv-88" value="&lt;h1&gt;$Name&lt;br&gt;&lt;/h1&gt;&lt;p&gt;Created by: $user&lt;br&gt;Created on $createdAt&lt;br&gt;Last update: $updatedAt&lt;br&gt;&lt;/p&gt;&lt;p&gt;$description&lt;/p&gt;" style="text;html=1;strokeColor=none;fillColor=none;spacing=5;spacingTop=-20;whiteSpace=wrap;overflow=hidden;rounded=0;" vertex="1" parent="1">
                    <mxGeometry x="500" y="1250" width="440" height="300" as="geometry"/>
                </mxCell>
                <mxCell id="pwWlHZMNSHFD94gdd8Dv-89" value="Map from&lt;br&gt;$location" style="rounded=0;whiteSpace=wrap;html=1;" vertex="1" parent="1">
                    <mxGeometry x="730" y="1250" width="220" height="310" as="geometry"/>
                </mxCell>
                <mxCell id="pwWlHZMNSHFD94gdd8Dv-90" value="&amp;lt;BUTTON&amp;gt; 'Save|Remove place to trip'" style="rounded=1;whiteSpace=wrap;html=1;" vertex="1" parent="1">
                    <mxGeometry x="495" y="1580" width="450" height="60" as="geometry"/>
                </mxCell>
                <mxCell id="pwWlHZMNSHFD94gdd8Dv-94" value="-Status red on poi indicates that it is part of the trip&lt;br&gt;&lt;br&gt;- status blue means that the poi is not added to trip so you can add it by clicking on it on the map&lt;br&gt;&lt;br&gt;- on click of poi toggles the tooltip of poi and highlights in list" style="text;html=1;strokeColor=none;fillColor=none;align=left;verticalAlign=middle;whiteSpace=wrap;rounded=0;labelBackgroundColor=none;" vertex="1" parent="1">
                    <mxGeometry x="990" y="1300" width="345" height="160" as="geometry"/>
                </mxCell>
                <mxCell id="pwWlHZMNSHFD94gdd8Dv-96" value="nice to have:&lt;br&gt;- places list orderable by drag and drop" style="text;html=1;strokeColor=none;fillColor=none;align=left;verticalAlign=middle;whiteSpace=wrap;rounded=0;labelBackgroundColor=none;" vertex="1" parent="1">
                    <mxGeometry x="-200" y="570" width="150" height="140" as="geometry"/>
                </mxCell>
                <mxCell id="pwWlHZMNSHFD94gdd8Dv-97" value="Save trip" style="rounded=0;whiteSpace=wrap;html=1;labelBackgroundColor=none;" vertex="1" parent="1">
                    <mxGeometry y="850" width="380" height="60" as="geometry"/>
                </mxCell>
                <mxCell id="37" value="PlaceOfInterest" style="rounded=0;whiteSpace=wrap;html=1;" parent="1" vertex="1">
                    <mxGeometry x="522.25" y="1400" width="120" height="60" as="geometry"/>
                </mxCell>
                <mxCell id="43" value="PlaceOfInterest" style="rounded=0;whiteSpace=wrap;html=1;" parent="1" vertex="1">
                    <mxGeometry x="522.25" y="1460" width="120" height="75" as="geometry"/>
                </mxCell>
                <mxCell id="pwWlHZMNSHFD94gdd8Dv-98" style="edgeStyle=none;html=1;exitX=1;exitY=0.5;exitDx=0;exitDy=0;" edge="1" parent="1" source="pwWlHZMNSHFD94gdd8Dv-65" target="pwWlHZMNSHFD94gdd8Dv-67">
                    <mxGeometry relative="1" as="geometry"/>
                </mxCell>
                <mxCell id="pwWlHZMNSHFD94gdd8Dv-65" value="+" style="rounded=0;whiteSpace=wrap;html=1;" vertex="1" parent="1">
                    <mxGeometry x="610.11" y="1400" width="32.14" height="25" as="geometry"/>
                </mxCell>
                <mxCell id="pwWlHZMNSHFD94gdd8Dv-79" value="-" style="rounded=0;whiteSpace=wrap;html=1;" vertex="1" parent="1">
                    <mxGeometry x="610.11" y="1460" width="32.14" height="25" as="geometry"/>
                </mxCell>
                <mxCell id="pwWlHZMNSHFD94gdd8Dv-81" value="" style="rounded=0;whiteSpace=wrap;html=1;labelBackgroundColor=#999900;" vertex="1" parent="1">
                    <mxGeometry x="522.25" y="1480" width="20" height="20" as="geometry"/>
                </mxCell>
                <mxCell id="pwWlHZMNSHFD94gdd8Dv-82" value="" style="shape=mxgraph.signs.healthcare.eye;html=1;pointerEvents=1;fillColor=#b0e3e6;strokeColor=#0e8088;verticalLabelPosition=bottom;verticalAlign=top;align=center;labelBackgroundColor=#999900;" vertex="1" parent="1">
                    <mxGeometry x="523.25" y="1485" width="18" height="10" as="geometry"/>
                </mxCell>
                <mxCell id="pwWlHZMNSHFD94gdd8Dv-83" value="" style="rounded=0;whiteSpace=wrap;html=1;labelBackgroundColor=#999900;" vertex="1" parent="1">
                    <mxGeometry x="523.25" y="1420" width="20" height="20" as="geometry"/>
                </mxCell>
                <mxCell id="pwWlHZMNSHFD94gdd8Dv-84" value="" style="shape=mxgraph.signs.healthcare.eye;html=1;pointerEvents=1;fillColor=#b0e3e6;strokeColor=#0e8088;verticalLabelPosition=bottom;verticalAlign=top;align=center;labelBackgroundColor=#999900;" vertex="1" parent="1">
                    <mxGeometry x="524.25" y="1425" width="18" height="10" as="geometry"/>
                </mxCell>
                <mxCell id="pwWlHZMNSHFD94gdd8Dv-67" value="on click adds poi to trip" style="text;html=1;strokeColor=none;fillColor=none;align=center;verticalAlign=middle;whiteSpace=wrap;rounded=0;" vertex="1" parent="1">
                    <mxGeometry x="660" y="1385" width="60" height="55" as="geometry"/>
                </mxCell>
                <mxCell id="pwWlHZMNSHFD94gdd8Dv-101" value="MarkerClickked&lt;br&gt;On Place" style="ellipse;whiteSpace=wrap;html=1;" vertex="1" parent="1">
                    <mxGeometry x="831" y="1340" width="30" height="40" as="geometry"/>
                </mxCell>
                <mxCell id="pwWlHZMNSHFD94gdd8Dv-102" value="" style="html=1;verticalLabelPosition=bottom;align=center;labelBackgroundColor=#999900;verticalAlign=top;strokeWidth=2;strokeColor=#ae4132;shadow=0;dashed=0;shape=mxgraph.ios7.icons.location;fillColor=#fad9d5;" vertex="1" parent="1">
                    <mxGeometry x="766" y="1375" width="8" height="10" as="geometry"/>
                </mxCell>
                <mxCell id="pwWlHZMNSHFD94gdd8Dv-103" value="" style="html=1;verticalLabelPosition=bottom;align=center;labelBackgroundColor=#ffffff;verticalAlign=top;strokeWidth=2;strokeColor=#0080F0;shadow=0;dashed=0;shape=mxgraph.ios7.icons.location;" vertex="1" parent="1">
                    <mxGeometry x="861" y="1310" width="8" height="10" as="geometry"/>
                </mxCell>
                <mxCell id="pwWlHZMNSHFD94gdd8Dv-104" value="poi1" style="text;html=1;strokeColor=none;fillColor=none;align=center;verticalAlign=middle;whiteSpace=wrap;rounded=0;" vertex="1" parent="1">
                    <mxGeometry x="740" y="1390" width="60" height="10" as="geometry"/>
                </mxCell>
                <mxCell id="pwWlHZMNSHFD94gdd8Dv-105" value="poi2" style="text;html=1;strokeColor=none;fillColor=none;align=center;verticalAlign=middle;whiteSpace=wrap;rounded=0;" vertex="1" parent="1">
                    <mxGeometry x="835" y="1320" width="60" height="10" as="geometry"/>
                </mxCell>
                <mxCell id="pwWlHZMNSHFD94gdd8Dv-107" value="Tooltip for my stop3" style="text;html=1;strokeColor=none;fillColor=none;align=center;verticalAlign=middle;whiteSpace=wrap;rounded=0;labelBackgroundColor=none;" vertex="1" parent="1">
                    <mxGeometry x="725" y="180" width="60" height="30" as="geometry"/>
                </mxCell>
                <mxCell id="pwWlHZMNSHFD94gdd8Dv-109" value="" style="rounded=0;whiteSpace=wrap;html=1;labelBackgroundColor=#999900;" vertex="1" parent="1">
                    <mxGeometry x="680" y="380" width="20" height="20" as="geometry"/>
                </mxCell>
                <mxCell id="pwWlHZMNSHFD94gdd8Dv-110" value="" style="shape=mxgraph.signs.healthcare.eye;html=1;pointerEvents=1;fillColor=#b0e3e6;strokeColor=#0e8088;verticalLabelPosition=bottom;verticalAlign=top;align=center;labelBackgroundColor=#999900;" vertex="1" parent="1">
                    <mxGeometry x="681" y="385" width="18" height="10" as="geometry"/>
                </mxCell>
            </root>
        </mxGraphModel>
    </diagram>
    <diagram id="InW_yCwNm8WOKo7ayqUT" name="create-trip">
        <mxGraphModel grid="1" page="1" gridSize="10" guides="1" tooltips="1" connect="1" arrows="1" fold="1" pageScale="1" pageWidth="850" pageHeight="1100" math="0" shadow="0">
            <root>
                <mxCell id="0"/>
                <mxCell id="1" parent="0"/>
                <mxCell id="5zqMhfN6qRjlA5MlZztz-1" value="" style="rounded=0;whiteSpace=wrap;html=1;" parent="1" vertex="1">
                    <mxGeometry x="240" y="150" width="380" height="450" as="geometry"/>
                </mxCell>
                <mxCell id="eehXBuaOUmguGm6LmOPK-35" value="on click" style="edgeStyle=none;html=1;exitX=0.5;exitY=1;exitDx=0;exitDy=0;entryX=0;entryY=0.5;entryDx=0;entryDy=0;" edge="1" parent="1" source="5zqMhfN6qRjlA5MlZztz-6" target="eehXBuaOUmguGm6LmOPK-33">
                    <mxGeometry relative="1" as="geometry"/>
                </mxCell>
                <mxCell id="5zqMhfN6qRjlA5MlZztz-6" value="Here we gooooo" style="rounded=0;whiteSpace=wrap;html=1;" parent="1" vertex="1">
                    <mxGeometry x="380" y="520" width="120" height="60" as="geometry"/>
                </mxCell>
                <mxCell id="5zqMhfN6qRjlA5MlZztz-7" value="" style="rounded=0;whiteSpace=wrap;html=1;" parent="1" vertex="1">
                    <mxGeometry x="250" y="-350" width="380" height="450" as="geometry"/>
                </mxCell>
                <mxCell id="eehXBuaOUmguGm6LmOPK-36" style="edgeStyle=none;html=1;exitX=1;exitY=0.5;exitDx=0;exitDy=0;entryX=0.5;entryY=0;entryDx=0;entryDy=0;" edge="1" parent="1" source="5zqMhfN6qRjlA5MlZztz-11" target="eehXBuaOUmguGm6LmOPK-33">
                    <mxGeometry relative="1" as="geometry">
                        <Array as="points">
                            <mxPoint x="660" y="120"/>
                        </Array>
                    </mxGeometry>
                </mxCell>
                <mxCell id="eehXBuaOUmguGm6LmOPK-37" value="on click" style="edgeLabel;html=1;align=center;verticalAlign=middle;resizable=0;points=[];" vertex="1" connectable="0" parent="eehXBuaOUmguGm6LmOPK-36">
                    <mxGeometry x="0.5887" y="3" relative="1" as="geometry">
                        <mxPoint y="-1" as="offset"/>
                    </mxGeometry>
                </mxCell>
                <mxCell id="5zqMhfN6qRjlA5MlZztz-11" value="Here we gooooo" style="rounded=0;whiteSpace=wrap;html=1;" parent="1" vertex="1">
                    <mxGeometry x="380" y="70" width="120" height="30" as="geometry"/>
                </mxCell>
                <mxCell id="5zqMhfN6qRjlA5MlZztz-13" value="" style="rounded=0;whiteSpace=wrap;html=1;" parent="1" vertex="1">
                    <mxGeometry x="280" y="-200" width="320" height="250" as="geometry"/>
                </mxCell>
                <mxCell id="5zqMhfN6qRjlA5MlZztz-14" value="Input" style="rounded=0;whiteSpace=wrap;html=1;" parent="1" vertex="1">
                    <mxGeometry x="280" y="-200" width="320" height="30" as="geometry"/>
                </mxCell>
                <mxCell id="5zqMhfN6qRjlA5MlZztz-15" value="Map" style="text;html=1;strokeColor=none;fillColor=none;align=center;verticalAlign=middle;whiteSpace=wrap;rounded=0;" parent="1" vertex="1">
                    <mxGeometry x="410" y="-60" width="60" height="30" as="geometry"/>
                </mxCell>
                <mxCell id="5zqMhfN6qRjlA5MlZztz-16" value="Auto complete" style="rounded=0;whiteSpace=wrap;html=1;" parent="1" vertex="1">
                    <mxGeometry x="310" y="-170" width="260" height="60" as="geometry"/>
                </mxCell>
                <mxCell id="5zqMhfN6qRjlA5MlZztz-17" value="" style="rounded=0;whiteSpace=wrap;html=1;" parent="1" vertex="1">
                    <mxGeometry x="-150" y="130" width="280" height="470" as="geometry"/>
                </mxCell>
                <mxCell id="5zqMhfN6qRjlA5MlZztz-18" value="Home screen" style="text;html=1;strokeColor=none;fillColor=none;align=center;verticalAlign=middle;whiteSpace=wrap;rounded=0;" parent="1" vertex="1">
                    <mxGeometry x="-130" y="140" width="60" height="30" as="geometry"/>
                </mxCell>
                <mxCell id="5zqMhfN6qRjlA5MlZztz-20" style="edgeStyle=none;html=1;exitX=1;exitY=0.5;exitDx=0;exitDy=0;entryX=0;entryY=0.25;entryDx=0;entryDy=0;" parent="1" source="5zqMhfN6qRjlA5MlZztz-19" target="5zqMhfN6qRjlA5MlZztz-1" edge="1">
                    <mxGeometry relative="1" as="geometry"/>
                </mxCell>
                <mxCell id="5zqMhfN6qRjlA5MlZztz-19" value="+" style="rounded=0;whiteSpace=wrap;html=1;" parent="1" vertex="1">
                    <mxGeometry x="-130" y="200" width="120" height="60" as="geometry"/>
                </mxCell>
                <mxCell id="67eTZjWwPhsjONn_VS8W-1" value="&amp;lt;Geolocation&amp;gt;" style="text;html=1;strokeColor=none;fillColor=none;align=center;verticalAlign=middle;whiteSpace=wrap;rounded=0;" vertex="1" parent="1">
                    <mxGeometry x="510" y="-60" width="60" height="30" as="geometry"/>
                </mxCell>
                <mxCell id="eehXBuaOUmguGm6LmOPK-2" value="Where to next?" style="text;html=1;strokeColor=none;fillColor=none;align=center;verticalAlign=middle;whiteSpace=wrap;rounded=0;" vertex="1" parent="1">
                    <mxGeometry x="365" y="171" width="130" height="30" as="geometry"/>
                </mxCell>
                <mxCell id="eehXBuaOUmguGm6LmOPK-3" value="" style="rounded=0;whiteSpace=wrap;html=1;" vertex="1" parent="1">
                    <mxGeometry x="570" y="-200" width="30" height="30" as="geometry"/>
                </mxCell>
                <mxCell id="eehXBuaOUmguGm6LmOPK-4" value="" style="html=1;verticalLabelPosition=bottom;align=center;labelBackgroundColor=#ffffff;verticalAlign=top;strokeWidth=2;strokeColor=#0080F0;shadow=0;dashed=0;shape=mxgraph.ios7.icons.location;" vertex="1" parent="1">
                    <mxGeometry x="577" y="-195" width="16" height="20" as="geometry"/>
                </mxCell>
                <mxCell id="eehXBuaOUmguGm6LmOPK-11" style="edgeStyle=none;html=1;exitX=0.5;exitY=0;exitDx=0;exitDy=0;entryX=0.133;entryY=1;entryDx=0;entryDy=0;entryPerimeter=0;" edge="1" parent="1" source="eehXBuaOUmguGm6LmOPK-5" target="5zqMhfN6qRjlA5MlZztz-7">
                    <mxGeometry relative="1" as="geometry"/>
                </mxCell>
                <mxCell id="eehXBuaOUmguGm6LmOPK-5" value="From" style="ellipse;whiteSpace=wrap;html=1;" vertex="1" parent="1">
                    <mxGeometry x="270" y="205" width="45" height="30" as="geometry"/>
                </mxCell>
                <mxCell id="eehXBuaOUmguGm6LmOPK-12" style="edgeStyle=none;html=1;exitX=0.5;exitY=0;exitDx=0;exitDy=0;entryX=0.233;entryY=0.998;entryDx=0;entryDy=0;entryPerimeter=0;" edge="1" parent="1" source="eehXBuaOUmguGm6LmOPK-6" target="5zqMhfN6qRjlA5MlZztz-7">
                    <mxGeometry relative="1" as="geometry"/>
                </mxCell>
                <mxCell id="eehXBuaOUmguGm6LmOPK-6" value="To" style="ellipse;whiteSpace=wrap;html=1;" vertex="1" parent="1">
                    <mxGeometry x="407.5" y="205" width="45" height="30" as="geometry"/>
                </mxCell>
                <mxCell id="eehXBuaOUmguGm6LmOPK-7" value="Budget" style="ellipse;whiteSpace=wrap;html=1;" vertex="1" parent="1">
                    <mxGeometry x="555" y="205" width="45" height="30" as="geometry"/>
                </mxCell>
                <mxCell id="eehXBuaOUmguGm6LmOPK-8" value="Content" style="rounded=0;whiteSpace=wrap;html=1;" vertex="1" parent="1">
                    <mxGeometry x="270" y="250" width="330" height="230" as="geometry"/>
                </mxCell>
                <mxCell id="eehXBuaOUmguGm6LmOPK-13" value="Where to next?" style="text;html=1;strokeColor=none;fillColor=none;align=center;verticalAlign=middle;whiteSpace=wrap;rounded=0;" vertex="1" parent="1">
                    <mxGeometry x="375" y="-330" width="130" height="30" as="geometry"/>
                </mxCell>
                <mxCell id="eehXBuaOUmguGm6LmOPK-14" value="" style="rounded=0;whiteSpace=wrap;html=1;" vertex="1" parent="1">
                    <mxGeometry x="700" y="140" width="380" height="450" as="geometry"/>
                </mxCell>
                <mxCell id="eehXBuaOUmguGm6LmOPK-34" value="on cllick" style="edgeStyle=none;html=1;exitX=0.5;exitY=1;exitDx=0;exitDy=0;entryX=1;entryY=0.5;entryDx=0;entryDy=0;" edge="1" parent="1" source="eehXBuaOUmguGm6LmOPK-16" target="eehXBuaOUmguGm6LmOPK-33">
                    <mxGeometry relative="1" as="geometry"/>
                </mxCell>
                <mxCell id="eehXBuaOUmguGm6LmOPK-16" value="Here we gooooo" style="rounded=0;whiteSpace=wrap;html=1;" vertex="1" parent="1">
                    <mxGeometry x="830" y="560" width="120" height="30" as="geometry"/>
                </mxCell>
                <mxCell id="eehXBuaOUmguGm6LmOPK-18" value="Input" style="rounded=0;whiteSpace=wrap;html=1;" vertex="1" parent="1">
                    <mxGeometry x="890" y="290" width="160" height="30" as="geometry"/>
                </mxCell>
                <mxCell id="eehXBuaOUmguGm6LmOPK-24" value="Where to next?" style="text;html=1;strokeColor=none;fillColor=none;align=center;verticalAlign=middle;whiteSpace=wrap;rounded=0;" vertex="1" parent="1">
                    <mxGeometry x="825" y="160" width="130" height="30" as="geometry"/>
                </mxCell>
                <mxCell id="eehXBuaOUmguGm6LmOPK-25" value="From" style="ellipse;whiteSpace=wrap;html=1;" vertex="1" parent="1">
                    <mxGeometry x="275" y="-270" width="45" height="30" as="geometry"/>
                </mxCell>
                <mxCell id="eehXBuaOUmguGm6LmOPK-26" value="To" style="ellipse;whiteSpace=wrap;html=1;" vertex="1" parent="1">
                    <mxGeometry x="412.5" y="-270" width="45" height="30" as="geometry"/>
                </mxCell>
                <mxCell id="eehXBuaOUmguGm6LmOPK-27" value="Budget" style="ellipse;whiteSpace=wrap;html=1;" vertex="1" parent="1">
                    <mxGeometry x="560" y="-270" width="45" height="30" as="geometry"/>
                </mxCell>
                <mxCell id="eehXBuaOUmguGm6LmOPK-28" value="From" style="ellipse;whiteSpace=wrap;html=1;" vertex="1" parent="1">
                    <mxGeometry x="720" y="215" width="45" height="30" as="geometry"/>
                </mxCell>
                <mxCell id="eehXBuaOUmguGm6LmOPK-29" value="To" style="ellipse;whiteSpace=wrap;html=1;" vertex="1" parent="1">
                    <mxGeometry x="857.5" y="215" width="45" height="30" as="geometry"/>
                </mxCell>
                <mxCell id="eehXBuaOUmguGm6LmOPK-30" value="Budget" style="ellipse;whiteSpace=wrap;html=1;" vertex="1" parent="1">
                    <mxGeometry x="1005" y="215" width="45" height="30" as="geometry"/>
                </mxCell>
                <mxCell id="eehXBuaOUmguGm6LmOPK-31" value="Global budget for trip" style="text;html=1;strokeColor=none;fillColor=none;align=center;verticalAlign=middle;whiteSpace=wrap;rounded=0;" vertex="1" parent="1">
                    <mxGeometry x="720" y="290" width="130" height="30" as="geometry"/>
                </mxCell>
                <mxCell id="eehXBuaOUmguGm6LmOPK-33" value="Opens toasty" style="rounded=0;whiteSpace=wrap;html=1;" vertex="1" parent="1">
                    <mxGeometry x="577" y="660" width="120" height="60" as="geometry"/>
                </mxCell>
            </root>
        </mxGraphModel>
    </diagram>
    <diagram id="7LCriiW55SLubvVZoDfY" name="data-model">
        <mxGraphModel dx="1544" dy="1016" grid="1" gridSize="10" guides="1" tooltips="1" connect="1" arrows="1" fold="1" page="1" pageScale="1" pageWidth="850" pageHeight="1100" math="0" shadow="0">
            <root>
                <mxCell id="0"/>
                <mxCell id="1" parent="0"/>
                <mxCell id="NbHU7CBReJTRZ9djm_dK-7" style="edgeStyle=none;html=1;exitX=1;exitY=0.75;exitDx=0;exitDy=0;entryX=0;entryY=0.75;entryDx=0;entryDy=0;" parent="1" source="NbHU7CBReJTRZ9djm_dK-1" target="NbHU7CBReJTRZ9djm_dK-2" edge="1">
                    <mxGeometry relative="1" as="geometry"/>
                </mxCell>
                <mxCell id="NbHU7CBReJTRZ9djm_dK-1" value="Trip" style="rounded=0;whiteSpace=wrap;html=1;" parent="1" vertex="1">
                    <mxGeometry x="360" y="370" width="120" height="60" as="geometry"/>
                </mxCell>
                <mxCell id="NbHU7CBReJTRZ9djm_dK-2" value="Place" style="rounded=0;whiteSpace=wrap;html=1;" parent="1" vertex="1">
                    <mxGeometry x="570" y="370" width="120" height="60" as="geometry"/>
                </mxCell>
                <mxCell id="NbHU7CBReJTRZ9djm_dK-4" style="edgeStyle=none;html=1;exitX=0.5;exitY=1;exitDx=0;exitDy=0;entryX=1;entryY=0;entryDx=0;entryDy=0;" parent="1" source="NbHU7CBReJTRZ9djm_dK-3" target="NbHU7CBReJTRZ9djm_dK-1" edge="1">
                    <mxGeometry relative="1" as="geometry"/>
                </mxCell>
                <mxCell id="NbHU7CBReJTRZ9djm_dK-3" value="User" style="rounded=0;whiteSpace=wrap;html=1;" parent="1" vertex="1">
                    <mxGeometry x="470" y="220" width="120" height="60" as="geometry"/>
                </mxCell>
                <mxCell id="NbHU7CBReJTRZ9djm_dK-5" value="1" style="text;html=1;strokeColor=none;fillColor=none;align=center;verticalAlign=middle;whiteSpace=wrap;rounded=0;" parent="1" vertex="1">
                    <mxGeometry x="530" y="280" width="20" height="20" as="geometry"/>
                </mxCell>
                <mxCell id="NbHU7CBReJTRZ9djm_dK-6" value="n" style="text;html=1;strokeColor=none;fillColor=none;align=center;verticalAlign=middle;whiteSpace=wrap;rounded=0;" parent="1" vertex="1">
                    <mxGeometry x="460" y="350" width="20" height="20" as="geometry"/>
                </mxCell>
                <mxCell id="NbHU7CBReJTRZ9djm_dK-8" value="0" style="text;html=1;strokeColor=none;fillColor=none;align=center;verticalAlign=middle;whiteSpace=wrap;rounded=0;" parent="1" vertex="1">
                    <mxGeometry x="480" y="415" width="20" height="20" as="geometry"/>
                </mxCell>
                <mxCell id="NbHU7CBReJTRZ9djm_dK-10" value="n" style="text;html=1;strokeColor=none;fillColor=none;align=center;verticalAlign=middle;whiteSpace=wrap;rounded=0;" parent="1" vertex="1">
                    <mxGeometry x="540" y="415" width="30" height="15" as="geometry"/>
                </mxCell>
            </root>
        </mxGraphModel>
    </diagram>
    <diagram id="isKyzH7FRRpYFoU7xccp" name="error">
        <mxGraphModel dx="1544" dy="1016" grid="1" gridSize="10" guides="1" tooltips="1" connect="1" arrows="1" fold="1" page="1" pageScale="1" pageWidth="850" pageHeight="1100" math="0" shadow="0">
            <root>
                <mxCell id="0"/>
                <mxCell id="1" parent="0"/>
                <mxCell id="Mx2kI6IuON_NfaiX_YMp-5" value="" style="rounded=0;whiteSpace=wrap;html=1;" parent="1" vertex="1">
                    <mxGeometry x="250" y="150" width="280" height="470" as="geometry"/>
                </mxCell>
                <mxCell id="Mx2kI6IuON_NfaiX_YMp-6" value="Trip xxxx" style="text;html=1;strokeColor=none;fillColor=none;align=center;verticalAlign=middle;whiteSpace=wrap;rounded=0;" parent="1" vertex="1">
                    <mxGeometry x="270" y="160" width="60" height="30" as="geometry"/>
                </mxCell>
                <mxCell id="Mx2kI6IuON_NfaiX_YMp-7" value="Error......" style="rounded=0;whiteSpace=wrap;html=1;" parent="1" vertex="1">
                    <mxGeometry x="283.6" y="270" width="212.8" height="190" as="geometry"/>
                </mxCell>
                <mxCell id="vL9eX8vo_L0iRTxf1G84-1" value="On error we should just send a modal to the user" style="text;html=1;strokeColor=none;fillColor=none;align=center;verticalAlign=middle;whiteSpace=wrap;rounded=0;" parent="1" vertex="1">
                    <mxGeometry x="290" y="110" width="210" height="30" as="geometry"/>
                </mxCell>
            </root>
        </mxGraphModel>
    </diagram>
    <diagram id="goqVHtzNErgMAZ13cm7S" name="save">
        <mxGraphModel dx="1544" dy="1016" grid="1" gridSize="10" guides="1" tooltips="1" connect="1" arrows="1" fold="1" page="1" pageScale="1" pageWidth="850" pageHeight="1100" math="0" shadow="0">
            <root>
                <mxCell id="0"/>
                <mxCell id="1" parent="0"/>
                <mxCell id="v-O8CpvHIsmXnUQrPsfW-1" value="" style="rounded=0;whiteSpace=wrap;html=1;" parent="1" vertex="1">
                    <mxGeometry x="290" y="130" width="280" height="470" as="geometry"/>
                </mxCell>
                <mxCell id="v-O8CpvHIsmXnUQrPsfW-2" value="Trip xxxx" style="text;html=1;strokeColor=none;fillColor=none;align=center;verticalAlign=middle;whiteSpace=wrap;rounded=0;" parent="1" vertex="1">
                    <mxGeometry x="310" y="140" width="60" height="30" as="geometry"/>
                </mxCell>
                <mxCell id="v-O8CpvHIsmXnUQrPsfW-3" value="Something happened it's great! happyyy" style="rounded=0;whiteSpace=wrap;html=1;" parent="1" vertex="1">
                    <mxGeometry x="290" y="570" width="280" height="30" as="geometry"/>
                </mxCell>
                <mxCell id="v-O8CpvHIsmXnUQrPsfW-4" value="Toast" style="text;html=1;strokeColor=none;fillColor=none;align=center;verticalAlign=middle;whiteSpace=wrap;rounded=0;" parent="1" vertex="1">
                    <mxGeometry x="220" y="570" width="60" height="30" as="geometry"/>
                </mxCell>
            </root>
        </mxGraphModel>
    </diagram>
    <diagram id="Mn90z8mYpYjBwt4FrYyJ" name="nice to have">
        <mxGraphModel dx="694" dy="1016" grid="1" gridSize="10" guides="1" tooltips="1" connect="1" arrows="1" fold="1" page="1" pageScale="1" pageWidth="850" pageHeight="1100" math="0" shadow="0">
            <root>
                <mxCell id="0"/>
                <mxCell id="1" parent="0"/>
                <mxCell id="VHQWdeB8472m2TOZWYiB-2" value="" style="rounded=0;whiteSpace=wrap;html=1;" vertex="1" parent="1">
                    <mxGeometry x="1060" y="200" width="380" height="440" as="geometry"/>
                </mxCell>
                <mxCell id="VHQWdeB8472m2TOZWYiB-3" value="BudgetView" style="rounded=0;whiteSpace=wrap;html=1;fillColor=#d80073;fontColor=#ffffff;strokeColor=#A50040;" vertex="1" parent="1">
                    <mxGeometry x="1330" y="290" width="90" height="30" as="geometry"/>
                </mxCell>
                <mxCell id="VHQWdeB8472m2TOZWYiB-4" value="Overview" style="rounded=0;whiteSpace=wrap;html=1;" vertex="1" parent="1">
                    <mxGeometry x="1150" y="290" width="80" height="30" as="geometry"/>
                </mxCell>
                <mxCell id="VHQWdeB8472m2TOZWYiB-5" value="MapView" style="rounded=0;whiteSpace=wrap;html=1;" vertex="1" parent="1">
                    <mxGeometry x="1240" y="290" width="80" height="30" as="geometry"/>
                </mxCell>
                <mxCell id="VHQWdeB8472m2TOZWYiB-6" value="" style="rounded=0;whiteSpace=wrap;html=1;strokeWidth=4;" vertex="1" parent="1">
                    <mxGeometry x="1075" y="380" width="180" height="70" as="geometry"/>
                </mxCell>
                <mxCell id="VHQWdeB8472m2TOZWYiB-7" value="Card" style="text;html=1;strokeColor=none;fillColor=none;align=center;verticalAlign=middle;whiteSpace=wrap;rounded=0;" vertex="1" parent="1">
                    <mxGeometry x="1195" y="380" width="60" height="30" as="geometry"/>
                </mxCell>
                <mxCell id="VHQWdeB8472m2TOZWYiB-8" value="Img" style="rounded=0;whiteSpace=wrap;html=1;" vertex="1" parent="1">
                    <mxGeometry x="1075" y="410" width="90" height="30" as="geometry"/>
                </mxCell>
                <mxCell id="VHQWdeB8472m2TOZWYiB-9" value="Place" style="text;html=1;strokeColor=none;fillColor=none;align=center;verticalAlign=middle;whiteSpace=wrap;rounded=0;" vertex="1" parent="1">
                    <mxGeometry x="1095" y="380" width="60" height="30" as="geometry"/>
                </mxCell>
                <mxCell id="VHQWdeB8472m2TOZWYiB-10" value="" style="rounded=0;whiteSpace=wrap;html=1;" vertex="1" parent="1">
                    <mxGeometry x="1075" y="450" width="180" height="70" as="geometry"/>
                </mxCell>
                <mxCell id="VHQWdeB8472m2TOZWYiB-11" value="Card" style="text;html=1;strokeColor=none;fillColor=none;align=center;verticalAlign=middle;whiteSpace=wrap;rounded=0;" vertex="1" parent="1">
                    <mxGeometry x="1195" y="450" width="60" height="30" as="geometry"/>
                </mxCell>
                <mxCell id="VHQWdeB8472m2TOZWYiB-12" value="Img" style="rounded=0;whiteSpace=wrap;html=1;" vertex="1" parent="1">
                    <mxGeometry x="1075" y="480" width="90" height="30" as="geometry"/>
                </mxCell>
                <mxCell id="VHQWdeB8472m2TOZWYiB-13" value="Place" style="text;html=1;strokeColor=none;fillColor=none;align=center;verticalAlign=middle;whiteSpace=wrap;rounded=0;" vertex="1" parent="1">
                    <mxGeometry x="1095" y="450" width="60" height="30" as="geometry"/>
                </mxCell>
                <mxCell id="VHQWdeB8472m2TOZWYiB-14" value="Budget: $$$" style="text;html=1;strokeColor=none;fillColor=none;align=center;verticalAlign=middle;whiteSpace=wrap;rounded=0;" vertex="1" parent="1">
                    <mxGeometry x="1160" y="400" width="85" height="30" as="geometry"/>
                </mxCell>
                <mxCell id="VHQWdeB8472m2TOZWYiB-15" value="Global budget $" style="rounded=0;whiteSpace=wrap;html=1;" vertex="1" parent="1">
                    <mxGeometry x="1260" y="340" width="160" height="20" as="geometry"/>
                </mxCell>
                <mxCell id="VHQWdeB8472m2TOZWYiB-16" value="" style="rounded=0;whiteSpace=wrap;html=1;" vertex="1" parent="1">
                    <mxGeometry x="1300" y="400" width="120" height="10" as="geometry"/>
                </mxCell>
                <mxCell id="VHQWdeB8472m2TOZWYiB-17" value="" style="ellipse;whiteSpace=wrap;html=1;aspect=fixed;" vertex="1" parent="1">
                    <mxGeometry x="1400" y="395" width="20" height="20" as="geometry"/>
                </mxCell>
                <mxCell id="VHQWdeB8472m2TOZWYiB-18" value="$$$/day" style="text;html=1;strokeColor=none;fillColor=none;align=center;verticalAlign=middle;whiteSpace=wrap;rounded=0;" vertex="1" parent="1">
                    <mxGeometry x="1195" y="415" width="60" height="30" as="geometry"/>
                </mxCell>
                <mxCell id="VHQWdeB8472m2TOZWYiB-19" value="&lt;span style=&quot;color: rgb(240, 240, 240); font-family: Helvetica; font-size: 12px; font-style: normal; font-variant-ligatures: normal; font-variant-caps: normal; font-weight: 400; letter-spacing: normal; orphans: 2; text-align: center; text-indent: 0px; text-transform: none; widows: 2; word-spacing: 0px; -webkit-text-stroke-width: 0px; background-color: rgb(42, 37, 47); text-decoration-thickness: initial; text-decoration-style: initial; text-decoration-color: initial; float: none; display: inline !important;&quot;&gt;Trip (budget view)&lt;/span&gt;" style="text;whiteSpace=wrap;html=1;" vertex="1" parent="1">
                    <mxGeometry x="1195" y="215" width="130" height="40" as="geometry"/>
                </mxCell>
                <mxCell id="VHQWdeB8472m2TOZWYiB-20" value="Trip detail add a budget view" style="text;html=1;strokeColor=none;fillColor=none;align=center;verticalAlign=middle;whiteSpace=wrap;rounded=0;labelBackgroundColor=none;" vertex="1" parent="1">
                    <mxGeometry x="1210" y="150" width="60" height="30" as="geometry"/>
                </mxCell>
            </root>
        </mxGraphModel>
    </diagram>
</mxfile>
